<?xml version="1.0" encoding="utf-8"?>
<!-- Generator: Adobe Illustrator 23.0.3, SVG Export Plug-In . SVG Version: 6.00 Build 0)  -->
<svg version="1.1" id="Layer_1" xmlns="http://www.w3.org/2000/svg" xmlns:xlink="http://www.w3.org/1999/xlink" x="0px" y="0px"
	 viewBox="0 0 792 612" style="enable-background:new 0 0 792 612;" xml:space="preserve">
<style type="text/css">
	.st0{fill:#ED1C24;}
	.st1{fill:none;stroke:#ED1C24;stroke-width:7;stroke-miterlimit:10;}
</style>
<path class="st0" d="M273.04,235.93v2.99c0,12.84-1.35,23-4.04,30.46c-2.7,7.47-7.44,13.48-14.22,18.05
	c-6.79,4.57-14.5,7.26-23.15,8.09l-3.97-9.49c8.18-0.91,15.01-3.2,20.48-6.86c5.47-3.66,9.17-8.13,11.09-13.43H228.5v-9.07h33.05
	c0.49-3.05,0.82-6.91,0.98-11.6H227.2v-9.14H273.04z"/>
<path class="st0" d="M323.26,238.74c-0.07,4.15-0.33,7.72-0.77,10.72c-0.8,5.51-2.08,10.59-3.85,15.26
	c-1.77,4.66-4.21,8.98-7.33,12.95c-3.12,3.97-7.07,7.44-11.85,10.39c-4.78,2.95-10.3,5.27-16.56,6.96l-2.81-9.14
	c9.84-2.39,17.57-7.02,23.17-13.89c-4.5-2.79-9.65-5.51-15.43-8.16l3.9-8.05c4.99,2.04,10.48,4.84,16.45,8.4
	c2.16-4.48,3.71-10.02,4.68-16.63h-18.67c-4.34,9.8-10.22,17.63-17.65,23.48l-6.01-7.35c4.71-3.91,8.68-8.75,11.92-14.52
	c3.23-5.77,5.55-11.8,6.96-18.11l10.05,1.37c-0.8,2.91-1.41,5-1.83,6.29H323.26z"/>
<path class="st0" d="M371.93,238.42l-0.39,6.71c-0.77,13.15-4.35,23.77-10.72,31.87c-6.38,8.1-15.96,13.92-28.76,17.46l-2.74-9.39
	c8.84-2.13,15.94-6.16,21.32-12.09c5.38-5.93,8.91-14.4,10.6-25.42h-17.02c-4.78,9.56-11.04,17.18-18.77,22.85l-6.19-7.42
	c10.5-8.23,17.41-19.1,20.74-32.63l9.88,1.23c-0.7,2.67-1.36,4.95-1.97,6.82H371.93z"/>
<path class="st0" d="M389.94,281.31c-3.35,3.94-6.83,7.17-10.44,9.7l-4.75-6.19c1.9-1.36,4.11-3.43,6.64-6.22
	c2.53-2.79,4.66-5.57,6.4-8.33h-10.16v-7.49h12.3v-4.18h-13.08v-7.49h6.61l-1.69-6.54h-3.8v-7.56h12.27v-6.29h9.28v6.29h11.74v7.56
	h-3.45l-2.18,6.54h5.98v7.49h-12.3v4.18h10.72v7.49h-9.42c3.05,3.02,6.14,5.52,9.28,7.49l-4.39,7.42c-2.51-1.99-4.57-3.83-6.19-5.52
	v15.08h-9.39V281.31z M390.58,244.57l1.58,6.54h5.06l1.86-6.54H390.58z M437.83,293.9h-9.49v-34.28h-5.59
	c-0.33,14.34-3.55,25.89-9.67,34.63l-6.79-5.13c1.83-2.72,3.49-6.78,4.97-12.18c1.49-5.4,2.23-12.27,2.23-20.62v-20.74
	c9.98-0.68,18.6-2.24,25.84-4.68l3.9,7.31c-3.35,1.13-10.17,2.47-20.46,4.04v9.49h21.69v7.88h-6.64V293.9z"/>
<path class="st0" d="M512.85,293.79h-65.67V285h27.21v-38.29h-24.54v-8.51h60.33v8.51h-25.35V285h28.02V293.79z"/>
<path class="st0" d="M547.48,282.61c-8.48,5.3-17.64,8.93-27.46,10.9l-2.57-7.03c8.16-1.88,15.36-4.48,21.62-7.8h-19.27V272h27.67
	v-3.3H523.5v-6.26h23.98v-3.3h-25.07v-6.71h13.15l-1.58-4.04h-13.22v-6.75h7.95l-3.55-8.16l8.4-2.07l4.5,10.23h3.2v-11.18h8.51
	v11.18h5.34v-11.18h8.4v11.18h3.62l4.46-10.3l8.79,2.07l-4.32,8.23h8.47v6.75h-13.61l-2.43,4.04h14.45v6.71h-25.98v3.3h24.19v6.26
	h-24.19v3.3h28.02v6.68h-19.16c5.58,2.79,12.77,5.15,21.59,7.07l-3.66,7.84c-10.01-2.27-18.94-6.13-26.79-11.57v12.59h-9.49V282.61z
	 M543.05,248.37l1.62,4.04h14.7l2.11-4.04H543.05z"/>
<g>
	<path class="st0" d="M387.06,333.71c-3.92,0-7.11-1.3-9.58-3.9c-2.47-2.6-3.7-6.08-3.7-10.43c0-4.16,1.18-7.6,3.54-10.32
		c2.36-2.71,5.64-4.07,9.83-4.07c3.88,0,7.04,1.28,9.48,3.84c2.44,2.56,3.66,5.97,3.66,10.25c0,4.42-1.23,7.97-3.7,10.63
		C394.13,332.38,390.95,333.71,387.06,333.71z M387.02,327.38c1.44,0,2.48-0.63,3.11-1.89c0.63-1.26,0.95-3.56,0.95-6.91
		c0-4.84-1.3-7.27-3.9-7.27c-2.8,0-4.21,2.76-4.21,8.29C382.98,324.79,384.33,327.38,387.02,327.38z"/>
	<path class="st0" d="M401.02,325.22l7.94-1.43c0.67,2.25,2.38,3.37,5.14,3.37c2.15,0,3.22-0.57,3.22-1.71c0-0.6-0.25-1.06-0.74-1.4
		c-0.5-0.33-1.38-0.63-2.66-0.89c-4.89-0.94-8.02-2.16-9.41-3.67c-1.39-1.51-2.08-3.29-2.08-5.33c0-2.63,1-4.81,2.99-6.55
		c1.99-1.74,4.86-2.61,8.6-2.61c5.67,0,9.42,2.28,11.25,6.84l-7.08,2.14c-0.73-1.86-2.22-2.8-4.47-2.8c-1.86,0-2.79,0.58-2.79,1.73
		c0,0.52,0.21,0.92,0.63,1.21c0.42,0.29,1.24,0.56,2.45,0.81c3.33,0.71,5.7,1.33,7.1,1.87c1.4,0.54,2.57,1.47,3.51,2.79
		c0.94,1.31,1.41,2.86,1.41,4.65c0,2.82-1.14,5.1-3.43,6.85c-2.29,1.75-5.29,2.62-9,2.62C406.8,333.71,402.61,330.88,401.02,325.22z
		"/>
	<path class="st0" d="M437.84,305.42v27.86h-8.55v-27.86H437.84z"/>
</g>
<line class="st1" x1="445.56" y1="319.35" x2="586.14" y2="319.35"/>
<line class="st1" x1="227.2" y1="319.35" x2="367.78" y2="319.35"/>
</svg>
